<?xml version="1.0" encoding="UTF-8"?>
<svg xmlns="http://www.w3.org/2000/svg" xmlns:xlink="http://www.w3.org/1999/xlink" width="24px" height="18px" viewBox="0 0 24 18" version="1.1">
<g id="surface1">
<rect x="0" y="0" width="24" height="18" style="fill:rgb(0%,0%,40%);fill-opacity:1;stroke:none;"/>
<path style=" stroke:none;fill-rule:nonzero;fill:rgb(100%,100%,100%);fill-opacity:1;" d="M -6.023438 0 L -6.023438 2.019531 L 26.035156 18.046875 L 30.074219 18.046875 L 30.074219 16.03125 L -1.988281 0 Z M 30.074219 0 L 30.074219 2.019531 L -1.988281 18.046875 L -6.023438 18.046875 L -6.023438 16.03125 L 26.035156 0 Z M 30.074219 0 "/>
<path style=" stroke:none;fill-rule:nonzero;fill:rgb(100%,100%,100%);fill-opacity:1;" d="M 9.015625 0 L 9.015625 18.046875 L 15.03125 18.046875 L 15.03125 0 Z M -6.023438 6.015625 L -6.023438 12.03125 L 30.074219 12.03125 L 30.074219 6.015625 Z M -6.023438 6.015625 "/>
<path style=" stroke:none;fill-rule:nonzero;fill:rgb(80%,0%,0%);fill-opacity:1;" d="M -6.023438 7.21875 L -6.023438 10.828125 L 30.074219 10.828125 L 30.074219 7.21875 Z M 10.21875 0 L 10.21875 18.046875 L 13.828125 18.046875 L 13.828125 0 Z M -6.023438 18.046875 L 6.007812 12.03125 L 8.699219 12.03125 L -3.332031 18.046875 Z M -6.023438 0 L 6.007812 6.015625 L 3.316406 6.015625 L -6.023438 1.34375 Z M 15.351562 6.015625 L 27.382812 0 L 30.074219 0 L 18.039062 6.015625 Z M 30.074219 18.046875 L 18.039062 12.03125 L 20.730469 12.03125 L 30.074219 16.703125 Z M 30.074219 18.046875 "/>
</g>
</svg>
